<?xml version="1.0" encoding="UTF-8"?> 
<!-- Generator: Adobe Illustrator 24.2.3, SVG Export Plug-In . SVG Version: 6.00 Build 0) --> 
<svg xmlns="http://www.w3.org/2000/svg" 
    xmlns:xlink="http://www.w3.org/1999/xlink" 
    version="1.1" id="Ebene_1" x="0px" y="0px" 
    viewBox="0 0 243.8 70.9" 
    style="enable-background:new 0 0 243.8 70.9;" 
    xml:space="preserve"> 
    
<style type="text/css"> 
    .st0{fill:#105E43;} 
</style> 

<g> 
    <path class="st0" d="M55,63.2H8.5v-7.6l25.1-36.9H8.5v-0.8L12,8.8h44.9v7.6l-25.2,37h26.8v0.7L55,63.2z"></path> 
    <path class="st0" d="M108.5,63.2H64.7V8.8h43.1l0,9.1v0.7H84.4v12.2H102v9.6H84.4v13h24.2v0.7L108.5,63.2z"></path> 
    <path class="st0" d="M149.5,63.2l-10.9-18.5c-1.3-1.6-2.2-1.8-3.6-1.8v20.2h-19.7V8.8h28.5c17.3,0,24.7,4.7,24.7,14.8 c0,8.2-5.4,13.4-12.7,15.9l15.4,23v0.7H149.5z M139.7,18.3H135V34c9.2,0,13.2-1.7,13.2-8.2C148.1,20.5,144.4,18.3,139.7,18.3z"></path> 
    <path class="st0" d="M215.6,63.2l-3.5-9.9h-19.3l-3.4,9.9h-16.5l0-0.7l20.9-53.7h22.4l19,53.7v0.7H215.6z M202.7,23.8L195.8,44 h13.1L202.7,23.8z"></path> 
</g> 

</svg> 